<svg id="visual" viewBox="0 0 900 600" width="900" height="600" xmlns="http://www.w3.org/2000/svg" xmlns:xlink="http://www.w3.org/1999/xlink" version="1.1"><rect x="0" y="0" width="900" height="600" fill="#001220"></rect><defs><linearGradient id="grad1_0" x1="33.3%" y1="100%" x2="100%" y2="0%"><stop offset="20%" stop-color="#0de7bb" stop-opacity="1"></stop><stop offset="80%" stop-color="#0de7bb" stop-opacity="1"></stop></linearGradient></defs><defs><linearGradient id="grad1_1" x1="33.3%" y1="100%" x2="100%" y2="0%"><stop offset="20%" stop-color="#0de7bb" stop-opacity="1"></stop><stop offset="80%" stop-color="#00c6b4" stop-opacity="1"></stop></linearGradient></defs><defs><linearGradient id="grad1_2" x1="33.3%" y1="100%" x2="100%" y2="0%"><stop offset="20%" stop-color="#00a5a7" stop-opacity="1"></stop><stop offset="80%" stop-color="#00c6b4" stop-opacity="1"></stop></linearGradient></defs><defs><linearGradient id="grad1_3" x1="33.3%" y1="100%" x2="100%" y2="0%"><stop offset="20%" stop-color="#00a5a7" stop-opacity="1"></stop><stop offset="80%" stop-color="#008494" stop-opacity="1"></stop></linearGradient></defs><defs><linearGradient id="grad1_4" x1="33.3%" y1="100%" x2="100%" y2="0%"><stop offset="20%" stop-color="#00657c" stop-opacity="1"></stop><stop offset="80%" stop-color="#008494" stop-opacity="1"></stop></linearGradient></defs><defs><linearGradient id="grad1_5" x1="33.3%" y1="100%" x2="100%" y2="0%"><stop offset="20%" stop-color="#00657c" stop-opacity="1"></stop><stop offset="80%" stop-color="#00475f" stop-opacity="1"></stop></linearGradient></defs><defs><linearGradient id="grad1_6" x1="33.3%" y1="100%" x2="100%" y2="0%"><stop offset="20%" stop-color="#002b3f" stop-opacity="1"></stop><stop offset="80%" stop-color="#00475f" stop-opacity="1"></stop></linearGradient></defs><defs><linearGradient id="grad1_7" x1="33.3%" y1="100%" x2="100%" y2="0%"><stop offset="20%" stop-color="#002b3f" stop-opacity="1"></stop><stop offset="80%" stop-color="#001220" stop-opacity="1"></stop></linearGradient></defs><defs><linearGradient id="grad2_0" x1="0%" y1="100%" x2="66.7%" y2="0%"><stop offset="20%" stop-color="#0de7bb" stop-opacity="1"></stop><stop offset="80%" stop-color="#0de7bb" stop-opacity="1"></stop></linearGradient></defs><defs><linearGradient id="grad2_1" x1="0%" y1="100%" x2="66.7%" y2="0%"><stop offset="20%" stop-color="#00c6b4" stop-opacity="1"></stop><stop offset="80%" stop-color="#0de7bb" stop-opacity="1"></stop></linearGradient></defs><defs><linearGradient id="grad2_2" x1="0%" y1="100%" x2="66.7%" y2="0%"><stop offset="20%" stop-color="#00c6b4" stop-opacity="1"></stop><stop offset="80%" stop-color="#00a5a7" stop-opacity="1"></stop></linearGradient></defs><defs><linearGradient id="grad2_3" x1="0%" y1="100%" x2="66.7%" y2="0%"><stop offset="20%" stop-color="#008494" stop-opacity="1"></stop><stop offset="80%" stop-color="#00a5a7" stop-opacity="1"></stop></linearGradient></defs><defs><linearGradient id="grad2_4" x1="0%" y1="100%" x2="66.7%" y2="0%"><stop offset="20%" stop-color="#008494" stop-opacity="1"></stop><stop offset="80%" stop-color="#00657c" stop-opacity="1"></stop></linearGradient></defs><defs><linearGradient id="grad2_5" x1="0%" y1="100%" x2="66.7%" y2="0%"><stop offset="20%" stop-color="#00475f" stop-opacity="1"></stop><stop offset="80%" stop-color="#00657c" stop-opacity="1"></stop></linearGradient></defs><defs><linearGradient id="grad2_6" x1="0%" y1="100%" x2="66.7%" y2="0%"><stop offset="20%" stop-color="#00475f" stop-opacity="1"></stop><stop offset="80%" stop-color="#002b3f" stop-opacity="1"></stop></linearGradient></defs><defs><linearGradient id="grad2_7" x1="0%" y1="100%" x2="66.7%" y2="0%"><stop offset="20%" stop-color="#001220" stop-opacity="1"></stop><stop offset="80%" stop-color="#002b3f" stop-opacity="1"></stop></linearGradient></defs><g transform="translate(900, 600)"><path d="M-432.7 0C-422.9 -78.3 -413.1 -156.7 -374.7 -216.3C-336.3 -276 -269.2 -316.9 -202 -349.9C-134.8 -382.8 -67.4 -407.7 0 -432.7L0 0Z" fill="#021f2f"></path><path d="M-378.6 0C-370 -68.5 -361.5 -137.1 -327.9 -189.3C-294.2 -241.5 -235.6 -277.3 -176.8 -306.1C-117.9 -335 -59 -356.8 0 -378.6L0 0Z" fill="#00394f"></path><path d="M-324.5 0C-317.2 -58.8 -309.8 -117.5 -281 -162.2C-252.2 -207 -201.9 -237.7 -151.5 -262.4C-101.1 -287.1 -50.5 -305.8 0 -324.5L0 0Z" fill="#00566e"></path><path d="M-270.4 0C-264.3 -49 -258.2 -97.9 -234.2 -135.2C-210.2 -172.5 -168.3 -198.1 -126.3 -218.7C-84.2 -239.3 -42.1 -254.8 0 -270.4L0 0Z" fill="#007488"></path><path d="M-216.3 0C-211.4 -39.2 -206.6 -78.3 -187.3 -108.2C-168.1 -138 -134.6 -158.5 -101 -174.9C-67.4 -191.4 -33.7 -203.9 0 -216.3L0 0Z" fill="#00949e"></path><path d="M-162.2 0C-158.6 -29.4 -154.9 -58.8 -140.5 -81.1C-126.1 -103.5 -101 -118.9 -75.8 -131.2C-50.5 -143.6 -25.3 -152.9 0 -162.2L0 0Z" fill="#00b5ae"></path><path d="M-108.2 0C-105.7 -19.6 -103.3 -39.2 -93.7 -54.1C-84.1 -69 -67.3 -79.2 -50.5 -87.5C-33.7 -95.7 -16.8 -101.9 0 -108.2L0 0Z" fill="#00d6b8"></path><path d="M-54.1 0C-52.9 -9.8 -51.6 -19.6 -46.8 -27C-42 -34.5 -33.7 -39.6 -25.3 -43.7C-16.8 -47.9 -8.4 -51 0 -54.1L0 0Z" fill="#0de7bb"></path></g><g transform="translate(0, 0)"><path d="M432.7 0C381 51.9 329.2 103.8 299.6 173C270.1 242.2 262.6 328.5 216.3 374.7C170.1 420.9 85 426.8 0 432.7L0 0Z" fill="#021f2f"></path><path d="M378.6 0C333.3 45.4 288.1 90.9 262.2 151.4C236.3 211.9 229.8 287.5 189.3 327.9C148.8 368.2 74.4 373.4 0 378.6L0 0Z" fill="#00394f"></path><path d="M324.5 0C285.7 38.9 246.9 77.9 224.7 129.7C202.5 181.6 196.9 246.4 162.2 281C127.6 315.6 63.8 320.1 0 324.5L0 0Z" fill="#00566e"></path><path d="M270.4 0C238.1 32.5 205.8 64.9 187.3 108.1C168.8 151.3 164.1 205.3 135.2 234.2C106.3 263 53.1 266.7 0 270.4L0 0Z" fill="#007488"></path><path d="M216.3 0C190.5 26 164.6 51.9 149.8 86.5C135 121.1 131.3 164.3 108.2 187.3C85 210.4 42.5 213.4 0 216.3L0 0Z" fill="#00949e"></path><path d="M162.2 0C142.9 19.5 123.5 38.9 112.4 64.9C101.3 90.8 98.5 123.2 81.1 140.5C63.8 157.8 31.9 160 0 162.2L0 0Z" fill="#00b5ae"></path><path d="M108.2 0C95.2 13 82.3 26 74.9 43.2C67.5 60.5 65.6 82.1 54.1 93.7C42.5 105.2 21.3 106.7 0 108.2L0 0Z" fill="#00d6b8"></path><path d="M54.1 0C47.6 6.5 41.2 13 37.5 21.6C33.8 30.3 32.8 41.1 27 46.8C21.3 52.6 10.6 53.3 0 54.1L0 0Z" fill="#0de7bb"></path></g></svg>