<svg id="visual" viewBox="0 0 960 540" width="960" height="540" xmlns="http://www.w3.org/2000/svg" xmlns:xlink="http://www.w3.org/1999/xlink" version="1.1"><path d="M681 540L759 540L759 486L791 486L791 432L684 432L684 378L747 378L747 324L671 324L671 270L770 270L770 216L776 216L776 162L759 162L759 108L750 108L750 54L735 54L735 0L960 0L960 54L960 54L960 108L960 108L960 162L960 162L960 216L960 216L960 270L960 270L960 324L960 324L960 378L960 378L960 432L960 432L960 486L960 486L960 540L960 540Z" fill="#9900ff"></path><path d="M752 540L853 540L853 486L833 486L833 432L744 432L744 378L767 378L767 324L831 324L831 270L796 270L796 216L751 216L751 162L796 162L796 108L780 108L780 54L744 54L744 0L960 0L960 54L960 54L960 108L960 108L960 162L960 162L960 216L960 216L960 270L960 270L960 324L960 324L960 378L960 378L960 432L960 432L960 486L960 486L960 540L960 540Z" fill="#7700c6"></path><path d="M909 540L873 540L873 486L847 486L847 432L824 432L824 378L898 378L898 324L846 324L846 270L846 270L846 216L871 216L871 162L865 162L865 108L851 108L851 54L906 54L906 0L960 0L960 54L960 54L960 108L960 108L960 162L960 162L960 216L960 216L960 270L960 270L960 324L960 324L960 378L960 378L960 432L960 432L960 486L960 486L960 540L960 540Z" fill="#560090"></path></svg>