<svg id="visual" viewBox="0 0 960 540" width="960" height="540" xmlns="http://www.w3.org/2000/svg" xmlns:xlink="http://www.w3.org/1999/xlink" version="1.1"><rect x="0" y="0" width="960" height="540" fill="#76318f"></rect><g fill="#5a1c71"><circle r="65" cx="817" cy="448"></circle><circle r="61" cx="96" cy="322"></circle><circle r="60" cx="513" cy="277"></circle><circle r="61" cx="957" cy="387"></circle><circle r="63" cx="796" cy="277"></circle><circle r="61" cx="285" cy="514"></circle><circle r="61" cx="343" cy="227"></circle><circle r="63" cx="451" cy="486"></circle><circle r="60" cx="935" cy="104"></circle><circle r="63" cx="562" cy="150"></circle><circle r="60" cx="83" cy="509"></circle><circle r="60" cx="86" cy="150"></circle><circle r="61" cx="285" cy="17"></circle><circle r="63" cx="683" cy="67"></circle><circle r="62" cx="504" cy="11"></circle><circle r="62" cx="671" cy="243"></circle><circle r="63" cx="297" cy="349"></circle><circle r="61" cx="30" cy="28"></circle><circle r="63" cx="663" cy="529"></circle><circle r="62" cx="228" cy="159"></circle><circle r="60" cx="181" cy="421"></circle><circle r="60" cx="703" cy="369"></circle><circle r="60" cx="393" cy="89"></circle><circle r="61" cx="811" cy="145"></circle><circle r="61" cx="951" cy="527"></circle><circle r="62" cx="925" cy="257"></circle><circle r="60" cx="567" cy="407"></circle><circle r="60" cx="818" cy="3"></circle></g></svg>