<svg id="visual" viewBox="0 0 960 540" width="960" height="540" xmlns="http://www.w3.org/2000/svg" xmlns:xlink="http://www.w3.org/1999/xlink" version="1.1"><rect x="0" y="0" width="960" height="540" fill="#b63091"></rect><path d="M0 341L22.8 353.7C45.7 366.3 91.3 391.7 137 393.5C182.7 395.3 228.3 373.7 274 361.2C319.7 348.7 365.3 345.3 411.2 345.3C457 345.3 503 348.7 548.8 363.7C594.7 378.7 640.3 405.3 686 407.7C731.7 410 777.3 388 823 392C868.7 396 914.3 426 937.2 441L960 456L960 541L937.2 541C914.3 541 868.7 541 823 541C777.3 541 731.7 541 686 541C640.3 541 594.7 541 548.8 541C503 541 457 541 411.2 541C365.3 541 319.7 541 274 541C228.3 541 182.7 541 137 541C91.3 541 45.7 541 22.8 541L0 541Z" fill="#76318f" stroke-linecap="round" stroke-linejoin="miter"></path></svg>