<svg id="visual" viewBox="0 0 960 540" width="960" height="540" xmlns="http://www.w3.org/2000/svg" xmlns:xlink="http://www.w3.org/1999/xlink" version="1.1"><rect x="0" y="0" width="960" height="540" fill="#f5f5f5"></rect><defs><linearGradient id="grad1_0" x1="43.8%" y1="0%" x2="100%" y2="100%"><stop offset="14.444444444444446%" stop-color="#f5f5f5" stop-opacity="1"></stop><stop offset="85.55555555555554%" stop-color="#f5f5f5" stop-opacity="1"></stop></linearGradient></defs><defs><linearGradient id="grad2_0" x1="0%" y1="0%" x2="56.3%" y2="100%"><stop offset="14.444444444444446%" stop-color="#f5f5f5" stop-opacity="1"></stop><stop offset="85.55555555555554%" stop-color="#f5f5f5" stop-opacity="1"></stop></linearGradient></defs><g transform="translate(960, 0)"><path d="M0 162C-27.8 157.2 -55.7 152.3 -80.5 139.4C-105.3 126.5 -127.2 105.6 -140.3 81C-153.4 56.4 -157.7 28.2 -162 0L0 0Z" fill="#e90e8b"></path></g><g transform="translate(0, 540)"><path d="M0 -162C28.3 -157.8 56.6 -153.5 81 -140.3C105.4 -127.1 125.7 -104.9 138.6 -80C151.4 -55.1 156.7 -27.6 162 0L0 0Z" fill="#e90e8b"></path></g></svg>