<svg id="visual" viewBox="0 0 960 540" width="960" height="540" xmlns="http://www.w3.org/2000/svg" xmlns:xlink="http://www.w3.org/1999/xlink" version="1.1"><rect x="0" y="0" width="960" height="540" fill="#001220"></rect><path d="M0 219L9.3 203.2C18.7 187.3 37.3 155.7 56.2 157.7C75 159.7 94 195.3 112.8 218.8C131.7 242.3 150.3 253.7 169.2 251.7C188 249.7 207 234.3 225.8 234.7C244.7 235 263.3 251 282.2 232.3C301 213.7 320 160.3 338.8 160C357.7 159.7 376.3 212.3 395.2 232.5C414 252.7 433 240.3 451.8 234.7C470.7 229 489.3 230 508.2 228C527 226 546 221 564.8 198.8C583.7 176.7 602.3 137.3 621.2 145.3C640 153.3 659 208.7 677.8 230.8C696.7 253 715.3 242 734.2 220.5C753 199 772 167 790.8 156.3C809.7 145.7 828.3 156.3 847.2 155.5C866 154.7 885 142.3 903.8 147C922.7 151.7 941.3 173.3 950.7 184.2L960 195L960 541L950.7 541C941.3 541 922.7 541 903.8 541C885 541 866 541 847.2 541C828.3 541 809.7 541 790.8 541C772 541 753 541 734.2 541C715.3 541 696.7 541 677.8 541C659 541 640 541 621.2 541C602.3 541 583.7 541 564.8 541C546 541 527 541 508.2 541C489.3 541 470.7 541 451.8 541C433 541 414 541 395.2 541C376.3 541 357.7 541 338.8 541C320 541 301 541 282.2 541C263.3 541 244.7 541 225.8 541C207 541 188 541 169.2 541C150.3 541 131.7 541 112.8 541C94 541 75 541 56.2 541C37.3 541 18.7 541 9.3 541L0 541Z" fill="#c62368"></path><path d="M0 213L9.3 208.8C18.7 204.7 37.3 196.3 56.2 201.3C75 206.3 94 224.7 112.8 231.8C131.7 239 150.3 235 169.2 239.5C188 244 207 257 225.8 265.7C244.7 274.3 263.3 278.7 282.2 278C301 277.3 320 271.7 338.8 272.7C357.7 273.7 376.3 281.3 395.2 268.2C414 255 433 221 451.8 219.8C470.7 218.7 489.3 250.3 508.2 265C527 279.7 546 277.3 564.8 260.5C583.7 243.7 602.3 212.3 621.2 211.2C640 210 659 239 677.8 237.3C696.7 235.7 715.3 203.3 734.2 198.8C753 194.3 772 217.7 790.8 235.7C809.7 253.7 828.3 266.3 847.2 261C866 255.7 885 232.3 903.8 234.3C922.7 236.3 941.3 263.7 950.7 277.3L960 291L960 541L950.7 541C941.3 541 922.7 541 903.8 541C885 541 866 541 847.2 541C828.3 541 809.7 541 790.8 541C772 541 753 541 734.2 541C715.3 541 696.7 541 677.8 541C659 541 640 541 621.2 541C602.3 541 583.7 541 564.8 541C546 541 527 541 508.2 541C489.3 541 470.7 541 451.8 541C433 541 414 541 395.2 541C376.3 541 357.7 541 338.8 541C320 541 301 541 282.2 541C263.3 541 244.7 541 225.8 541C207 541 188 541 169.2 541C150.3 541 131.7 541 112.8 541C94 541 75 541 56.2 541C37.3 541 18.7 541 9.3 541L0 541Z" fill="#e95667"></path><path d="M0 263L9.3 260.3C18.7 257.7 37.3 252.3 56.2 253.5C75 254.7 94 262.3 112.8 270.5C131.7 278.7 150.3 287.3 169.2 303.8C188 320.3 207 344.7 225.8 353.7C244.7 362.7 263.3 356.3 282.2 357.2C301 358 320 366 338.8 359.3C357.7 352.7 376.3 331.3 395.2 321.5C414 311.7 433 313.3 451.8 306.2C470.7 299 489.3 283 508.2 282.8C527 282.7 546 298.3 564.8 316C583.7 333.7 602.3 353.3 621.2 344.7C640 336 659 299 677.8 299.5C696.7 300 715.3 338 734.2 349.8C753 361.7 772 347.3 790.8 336.7C809.7 326 828.3 319 847.2 324.5C866 330 885 348 903.8 347C922.7 346 941.3 326 950.7 316L960 306L960 541L950.7 541C941.3 541 922.7 541 903.8 541C885 541 866 541 847.2 541C828.3 541 809.7 541 790.8 541C772 541 753 541 734.2 541C715.3 541 696.7 541 677.8 541C659 541 640 541 621.2 541C602.3 541 583.7 541 564.8 541C546 541 527 541 508.2 541C489.3 541 470.7 541 451.8 541C433 541 414 541 395.2 541C376.3 541 357.7 541 338.8 541C320 541 301 541 282.2 541C263.3 541 244.7 541 225.8 541C207 541 188 541 169.2 541C150.3 541 131.7 541 112.8 541C94 541 75 541 56.2 541C37.3 541 18.7 541 9.3 541L0 541Z" fill="#fa7268"></path><path d="M0 332L9.3 341C18.7 350 37.3 368 56.2 373.8C75 379.7 94 373.3 112.8 369.5C131.7 365.7 150.3 364.3 169.2 365.2C188 366 207 369 225.8 379.3C244.7 389.7 263.3 407.3 282.2 411C301 414.7 320 404.3 338.8 398.5C357.7 392.7 376.3 391.3 395.2 382.3C414 373.3 433 356.7 451.8 348.5C470.7 340.3 489.3 340.7 508.2 355C527 369.3 546 397.7 564.8 396C583.7 394.3 602.3 362.7 621.2 349.7C640 336.7 659 342.3 677.8 350C696.7 357.7 715.3 367.3 734.2 377.2C753 387 772 397 790.8 398C809.7 399 828.3 391 847.2 393.5C866 396 885 409 903.8 412C922.7 415 941.3 408 950.7 404.5L960 401L960 541L950.7 541C941.3 541 922.7 541 903.8 541C885 541 866 541 847.2 541C828.3 541 809.7 541 790.8 541C772 541 753 541 734.2 541C715.3 541 696.7 541 677.8 541C659 541 640 541 621.2 541C602.3 541 583.7 541 564.8 541C546 541 527 541 508.2 541C489.3 541 470.7 541 451.8 541C433 541 414 541 395.2 541C376.3 541 357.7 541 338.8 541C320 541 301 541 282.2 541C263.3 541 244.7 541 225.8 541C207 541 188 541 169.2 541C150.3 541 131.7 541 112.8 541C94 541 75 541 56.2 541C37.3 541 18.7 541 9.3 541L0 541Z" fill="#e95667"></path><path d="M0 437L9.3 441.8C18.7 446.7 37.3 456.3 56.2 457.5C75 458.7 94 451.3 112.8 450C131.7 448.7 150.3 453.3 169.2 460.8C188 468.3 207 478.7 225.8 481.8C244.7 485 263.3 481 282.2 477.5C301 474 320 471 338.8 470.8C357.7 470.7 376.3 473.3 395.2 466.2C414 459 433 442 451.8 439C470.7 436 489.3 447 508.2 454C527 461 546 464 564.8 466C583.7 468 602.3 469 621.2 464.2C640 459.3 659 448.7 677.8 443.5C696.7 438.3 715.3 438.7 734.2 440.8C753 443 772 447 790.8 442.7C809.7 438.3 828.3 425.7 847.2 418.8C866 412 885 411 903.8 411.3C922.7 411.7 941.3 413.3 950.7 414.2L960 415L960 541L950.7 541C941.3 541 922.7 541 903.8 541C885 541 866 541 847.2 541C828.3 541 809.7 541 790.8 541C772 541 753 541 734.2 541C715.3 541 696.7 541 677.8 541C659 541 640 541 621.2 541C602.3 541 583.7 541 564.8 541C546 541 527 541 508.2 541C489.3 541 470.7 541 451.8 541C433 541 414 541 395.2 541C376.3 541 357.7 541 338.8 541C320 541 301 541 282.2 541C263.3 541 244.7 541 225.8 541C207 541 188 541 169.2 541C150.3 541 131.7 541 112.8 541C94 541 75 541 56.2 541C37.3 541 18.7 541 9.3 541L0 541Z" fill="#c62368"></path></svg>