<svg id="visual" viewBox="0 0 960 540" width="960" height="540" xmlns="http://www.w3.org/2000/svg" xmlns:xlink="http://www.w3.org/1999/xlink" version="1.1"><path d="M0 294L137 294L137 310L274 310L274 291L411 291L411 238L549 238L549 241L686 241L686 285L823 285L823 286L960 286L960 246L960 541L960 541L823 541L823 541L686 541L686 541L549 541L549 541L411 541L411 541L274 541L274 541L137 541L137 541L0 541Z" fill="#9900ff"></path><path d="M0 343L137 343L137 346L274 346L274 371L411 371L411 349L549 349L549 371L686 371L686 311L823 311L823 332L960 332L960 343L960 541L960 541L823 541L823 541L686 541L686 541L549 541L549 541L411 541L411 541L274 541L274 541L137 541L137 541L0 541Z" fill="#7700c6"></path><path d="M0 436L137 436L137 476L274 476L274 460L411 460L411 435L549 435L549 425L686 425L686 424L823 424L823 427L960 427L960 489L960 541L960 541L823 541L823 541L686 541L686 541L549 541L549 541L411 541L411 541L274 541L274 541L137 541L137 541L0 541Z" fill="#560090"></path></svg>