<svg xmlns="http://www.w3.org/2000/svg" xmlns:xlink="http://www.w3.org/1999/xlink" id="visual" version="1.1" viewBox="0 0 900 332"><path d="M0 322L129 322L129 283L257 283L257 332L386 332L386 318L514 318L514 220L643 220L643 318L771 318L771 221L900 221L900 243L900 0L900 0L771 0L771 0L643 0L643 0L514 0L514 0L386 0L386 0L257 0L257 0L129 0L129 0L0 0Z" fill="#71e0d3"/><path d="M0 206L129 206L129 249L257 249L257 181L386 181L386 252L514 252L514 164L643 164L643 203L771 203L771 152L900 152L900 198L900 0L900 0L771 0L771 0L643 0L643 0L514 0L514 0L386 0L386 0L257 0L257 0L129 0L129 0L0 0Z" fill="#8fe78d"/><path d="M0 78L129 78L129 65L257 65L257 125L386 125L386 57L514 57L514 153L643 153L643 146L771 146L771 110L900 110L900 74L900 0L900 0L771 0L771 0L643 0L643 0L514 0L514 0L386 0L386 0L257 0L257 0L129 0L129 0L0 0Z" fill="#f0da33"/></svg>