<svg id="visual" viewBox="0 0 1800 540" width="1800" height="540" xmlns="http://www.w3.org/2000/svg" xmlns:xlink="http://www.w3.org/1999/xlink" version="1.1"><path d="M0 435L42.8 431.7C85.7 428.3 171.3 421.7 257 417.2C342.7 412.7 428.3 410.3 514 422.2C599.7 434 685.3 460 771.2 451.2C857 442.3 943 398.7 1028.8 384.7C1114.7 370.7 1200.3 386.3 1286 388.8C1371.7 391.3 1457.3 380.7 1543 379.5C1628.7 378.3 1714.3 386.7 1757.2 390.8L1800 395L1800 541L1757.2 541C1714.3 541 1628.7 541 1543 541C1457.3 541 1371.7 541 1286 541C1200.3 541 1114.7 541 1028.8 541C943 541 857 541 771.2 541C685.3 541 599.7 541 514 541C428.3 541 342.7 541 257 541C171.3 541 85.7 541 42.8 541L0 541Z" fill="#0066FF" stroke-linecap="round" stroke-linejoin="miter"></path></svg>